<svg width="125" height="16" viewBox="0 0 125 16" fill="none" xmlns="http://www.w3.org/2000/svg">
<path d="M11.336 0.608V12H9.512V4.928L6.488 12H5.128L2.088 5.008V12H0.264V0.608H1.896L5.816 9.52L9.704 0.608H11.336ZM21.4097 3.92V12H19.4418V10.704C19.1964 11.152 18.8444 11.504 18.3858 11.76C17.9271 12.0053 17.4044 12.128 16.8177 12.128C16.1138 12.128 15.4898 11.9573 14.9457 11.616C14.4018 11.2747 13.9804 10.7893 13.6818 10.16C13.3831 9.53067 13.2338 8.8 13.2338 7.968C13.2338 7.136 13.3831 6.4 13.6818 5.76C13.9911 5.10933 14.4178 4.608 14.9618 4.256C15.5058 3.89333 16.1244 3.712 16.8177 3.712C17.4044 3.712 17.9271 3.84 18.3858 4.096C18.8444 4.34133 19.1964 4.688 19.4418 5.136V3.92H21.4097ZM17.3618 10.56C18.0231 10.56 18.5351 10.3307 18.8978 9.872C19.2604 9.41333 19.4418 8.768 19.4418 7.936C19.4418 7.08267 19.2604 6.42667 18.8978 5.968C18.5351 5.50933 18.0178 5.28 17.3458 5.28C16.6844 5.28 16.1671 5.52 15.7938 6C15.4311 6.46933 15.2498 7.12533 15.2498 7.968C15.2498 8.8 15.4311 9.44 15.7938 9.888C16.1671 10.336 16.6898 10.56 17.3618 10.56ZM27.94 3.728C28.2493 3.728 28.516 3.77067 28.74 3.856L28.724 5.68C28.3827 5.54133 28.0307 5.472 27.668 5.472C26.9853 5.472 26.4627 5.66933 26.1 6.064C25.748 6.45867 25.572 6.98133 25.572 7.632V12H23.588V6.208C23.588 5.35467 23.5453 4.592 23.46 3.92H25.332L25.492 5.344C25.6947 4.82133 26.0147 4.42133 26.452 4.144C26.8893 3.86667 27.3853 3.728 27.94 3.728ZM37.5054 3.92V11.744C37.5054 13.0027 37.1587 13.9573 36.4654 14.608C35.772 15.2587 34.7534 15.584 33.4094 15.584C32.1614 15.584 31.0627 15.3227 30.1134 14.8L30.4334 13.28C31.4147 13.792 32.3907 14.048 33.3614 14.048C34.8014 14.048 35.5214 13.3333 35.5214 11.904V10.304C35.276 10.7413 34.9187 11.0987 34.4494 11.376C33.98 11.6427 33.452 11.776 32.8654 11.776C32.1614 11.776 31.532 11.6107 30.9774 11.28C30.4334 10.9387 30.0067 10.464 29.6974 9.856C29.3987 9.23733 29.2494 8.53333 29.2494 7.744C29.2494 6.95467 29.3987 6.256 29.6974 5.648C30.0067 5.02933 30.4334 4.55467 30.9774 4.224C31.532 3.88267 32.1614 3.712 32.8654 3.712C33.4627 3.712 33.9907 3.84 34.4494 4.096C34.9187 4.34133 35.276 4.688 35.5214 5.136V3.92H37.5054ZM33.3934 10.208C34.0547 10.208 34.572 9.98933 34.9454 9.552C35.3294 9.11467 35.5214 8.512 35.5214 7.744C35.5214 6.976 35.3347 6.37333 34.9614 5.936C34.588 5.49867 34.0654 5.28 33.3934 5.28C32.732 5.28 32.2094 5.49867 31.8254 5.936C31.452 6.37333 31.2654 6.976 31.2654 7.744C31.2654 8.512 31.452 9.11467 31.8254 9.552C32.2094 9.98933 32.732 10.208 33.3934 10.208ZM47.3941 3.92V12H45.4261V10.704C45.1808 11.152 44.8288 11.504 44.3701 11.76C43.9115 12.0053 43.3888 12.128 42.8021 12.128C42.0981 12.128 41.4741 11.9573 40.9301 11.616C40.3861 11.2747 39.9648 10.7893 39.6661 10.16C39.3675 9.53067 39.2181 8.8 39.2181 7.968C39.2181 7.136 39.3675 6.4 39.6661 5.76C39.9755 5.10933 40.4021 4.608 40.9461 4.256C41.4901 3.89333 42.1088 3.712 42.8021 3.712C43.3888 3.712 43.9115 3.84 44.3701 4.096C44.8288 4.34133 45.1808 4.688 45.4261 5.136V3.92H47.3941ZM43.3461 10.56C44.0075 10.56 44.5195 10.3307 44.8821 9.872C45.2448 9.41333 45.4261 8.768 45.4261 7.936C45.4261 7.08267 45.2448 6.42667 44.8821 5.968C44.5195 5.50933 44.0021 5.28 43.3301 5.28C42.6688 5.28 42.1515 5.52 41.7781 6C41.4155 6.46933 41.2341 7.12533 41.2341 7.968C41.2341 8.8 41.4155 9.44 41.7781 9.888C42.1515 10.336 42.6741 10.56 43.3461 10.56ZM53.9244 3.728C54.2337 3.728 54.5004 3.77067 54.7244 3.856L54.7084 5.68C54.367 5.54133 54.015 5.472 53.6524 5.472C52.9697 5.472 52.447 5.66933 52.0844 6.064C51.7324 6.45867 51.5564 6.98133 51.5564 7.632V12H49.5724V6.208C49.5724 5.35467 49.5297 4.592 49.4444 3.92H51.3164L51.4764 5.344C51.679 4.82133 51.999 4.42133 52.4364 4.144C52.8737 3.86667 53.3697 3.728 53.9244 3.728ZM62.7538 8.064H57.1858C57.2284 8.928 57.4418 9.568 57.8258 9.984C58.2204 10.3893 58.8018 10.592 59.5698 10.592C60.4551 10.592 61.2764 10.304 62.0338 9.728L62.6098 11.104C62.2258 11.4133 61.7511 11.664 61.1858 11.856C60.6311 12.0373 60.0658 12.128 59.4898 12.128C58.1671 12.128 57.1271 11.7547 56.3698 11.008C55.6124 10.2613 55.2338 9.23733 55.2338 7.936C55.2338 7.11467 55.3991 6.384 55.7298 5.744C56.0604 5.104 56.5244 4.608 57.1218 4.256C57.7191 3.89333 58.3964 3.712 59.1538 3.712C60.2631 3.712 61.1378 4.07467 61.7778 4.8C62.4284 5.51467 62.7538 6.50133 62.7538 7.76V8.064ZM59.2018 5.152C58.6684 5.152 58.2311 5.312 57.8898 5.632C57.5591 5.94133 57.3458 6.39467 57.2498 6.992H61.0098C60.9458 6.384 60.7591 5.92533 60.4498 5.616C60.1511 5.30667 59.7351 5.152 59.2018 5.152ZM66.882 5.424V9.04C66.882 9.98933 67.3247 10.464 68.21 10.464C68.4553 10.464 68.722 10.4213 69.01 10.336V11.92C68.658 12.048 68.2313 12.112 67.73 12.112C66.8127 12.112 66.1087 11.856 65.618 11.344C65.1273 10.832 64.882 10.096 64.882 9.136V5.424H63.33V3.92H64.882V1.952L66.882 1.28V3.92H69.026V5.424H66.882ZM74.9351 0.608H79.8791C81.1058 0.608 82.0605 0.906666 82.7431 1.504C83.4258 2.09067 83.7671 2.896 83.7671 3.92C83.7671 4.944 83.4205 5.75467 82.7271 6.352C82.0445 6.94933 81.0951 7.248 79.8791 7.248H76.9991V12H74.9351V0.608ZM79.6391 5.648C80.3538 5.648 80.8925 5.504 81.2551 5.216C81.6285 4.91733 81.8151 4.49067 81.8151 3.936C81.8151 3.37067 81.6338 2.944 81.2711 2.656C80.9085 2.35733 80.3645 2.208 79.6391 2.208H76.9991V5.648H79.6391ZM90.0714 3.712C92.002 3.712 92.9674 4.82133 92.9674 7.04V12H90.9674V7.136C90.9674 6.496 90.8447 6.032 90.5994 5.744C90.354 5.44533 89.9754 5.296 89.4634 5.296C88.8554 5.296 88.3647 5.49333 87.9914 5.888C87.618 6.272 87.4314 6.784 87.4314 7.424V12H85.4474V0.223999H87.4314V5.088C87.7087 4.65067 88.0767 4.31467 88.5354 4.08C88.994 3.83467 89.506 3.712 90.0714 3.712ZM102.16 8.064H96.592C96.6347 8.928 96.848 9.568 97.232 9.984C97.6267 10.3893 98.208 10.592 98.976 10.592C99.8613 10.592 100.683 10.304 101.44 9.728L102.016 11.104C101.632 11.4133 101.157 11.664 100.592 11.856C100.037 12.0373 99.472 12.128 98.896 12.128C97.5733 12.128 96.5333 11.7547 95.776 11.008C95.0187 10.2613 94.64 9.23733 94.64 7.936C94.64 7.11467 94.8053 6.384 95.136 5.744C95.4667 5.104 95.9307 4.608 96.528 4.256C97.1253 3.89333 97.8027 3.712 98.56 3.712C99.6693 3.712 100.544 4.07467 101.184 4.8C101.835 5.51467 102.16 6.50133 102.16 7.76V8.064ZM98.608 5.152C98.0747 5.152 97.6373 5.312 97.296 5.632C96.9653 5.94133 96.752 6.39467 96.656 6.992H100.416C100.352 6.384 100.165 5.92533 99.856 5.616C99.5573 5.30667 99.1413 5.152 98.608 5.152ZM103.854 0.223999H105.838V12H103.854V0.223999ZM112.634 3.712C113.327 3.712 113.94 3.89333 114.474 4.256C115.018 4.608 115.439 5.10933 115.738 5.76C116.047 6.4 116.202 7.136 116.202 7.968C116.202 8.8 116.052 9.53067 115.753 10.16C115.455 10.7893 115.034 11.2747 114.49 11.616C113.956 11.9573 113.338 12.128 112.634 12.128C112.047 12.128 111.524 12.0053 111.066 11.76C110.607 11.504 110.255 11.152 110.01 10.704V15.456H108.026V6.208C108.026 5.35467 107.983 4.592 107.898 3.92H109.77L109.93 5.312C110.143 4.81067 110.49 4.42133 110.97 4.144C111.45 3.856 112.004 3.712 112.634 3.712ZM112.09 10.56C112.762 10.56 113.279 10.336 113.642 9.888C114.004 9.44 114.186 8.8 114.186 7.968C114.186 7.12533 114.004 6.46933 113.642 6C113.279 5.52 112.767 5.28 112.106 5.28C111.423 5.28 110.9 5.50933 110.538 5.968C110.175 6.42667 109.994 7.08267 109.994 7.936C109.994 8.77867 110.175 9.42933 110.538 9.888C110.9 10.336 111.418 10.56 112.09 10.56ZM120.907 12.128C119.446 12.128 118.283 11.7867 117.419 11.104L117.979 9.696C118.843 10.336 119.83 10.656 120.939 10.656C121.419 10.656 121.787 10.576 122.043 10.416C122.31 10.256 122.443 10.032 122.443 9.744C122.443 9.49867 122.353 9.30667 122.171 9.168C121.99 9.01867 121.681 8.89067 121.243 8.784L119.899 8.48C118.427 8.16 117.691 7.408 117.691 6.224C117.691 5.73333 117.83 5.30133 118.107 4.928C118.385 4.544 118.774 4.24533 119.275 4.032C119.777 3.81867 120.358 3.712 121.019 3.712C121.595 3.712 122.15 3.80267 122.683 3.984C123.217 4.15467 123.686 4.40533 124.091 4.736L123.499 6.096C122.689 5.49867 121.857 5.2 121.003 5.2C120.545 5.2 120.187 5.28533 119.931 5.456C119.675 5.62667 119.547 5.86133 119.547 6.16C119.547 6.39467 119.622 6.58133 119.771 6.72C119.931 6.85867 120.198 6.976 120.571 7.072L121.947 7.376C122.747 7.55733 123.329 7.84 123.691 8.224C124.065 8.59733 124.251 9.088 124.251 9.696C124.251 10.4427 123.953 11.0347 123.355 11.472C122.758 11.9093 121.942 12.128 120.907 12.128Z" fill="#19202C"/>
</svg>
